<?xml version="1.0" ?><svg height="24px" version="1.1" viewBox="0 0 24 24" width="24px" xmlns="http://www.w3.org/2000/svg" xmlns:xlink="http://www.w3.org/1999/xlink"><title/><g fill="none" fill-rule="evenodd" id="页面-1" stroke="none" stroke-width="1"><g id="导航图标" transform="translate(-26.000000, -80.000000)"><g id="编组" transform="translate(26.000000, 80.000000)"><rect fill="#FFFFFF" fill-opacity="0.01" fill-rule="nonzero" height="24" id="矩形" width="24" x="0" y="0"/><path d="M12,10 C13.933,10 15.5,8.433 15.5,6.5 C15.5,4.567005 13.933,3 12,3 C10.067,3 8.5,4.567005 8.5,6.5 C8.5,8.433 10.067,10 12,10 Z" id="路径" stroke="#212121" stroke-linecap="round" stroke-linejoin="round" stroke-width="1.5"/><path d="M6,3.62734 C5.09325,4.259815 4.5,5.3106 4.5,6.5 C4.5,7.77315 5.1798,8.88755 6.1962,9.5" id="路径" stroke="#212121" stroke-linecap="round" stroke-linejoin="round" stroke-width="1.5"/><path d="M18,3.62734 C18.90675,4.259815 19.5,5.3106 19.5,6.5 C19.5,7.68935 18.90675,8.7402 18,9.37265" id="路径" stroke="#212121" stroke-linecap="round" stroke-linejoin="round" stroke-width="1.5"/><path d="M6,20 L6,21 L18,21 L18,20 C18,18.13625 18,17.20435 17.6955,16.46925 C17.28955,15.48915 16.51085,14.71045 15.53075,14.3045 C14.79565,14 13.86375,14 12,14 C10.13625,14 9.20435,14 8.46925,14.3045 C7.48915,14.71045 6.71045,15.48915 6.3045,16.46925 C6,17.20435 6,18.13625 6,20 Z" id="路径" stroke="#212121" stroke-linecap="round" stroke-linejoin="round" stroke-width="1.5"/><path d="M21.99995,21 L21.99995,20.4 C21.99995,18.1598 21.99995,17.0397 21.564,16.18405 C21.1805,15.4314 20.56855,14.81945 19.8159,14.43595" id="路径" stroke="#212121" stroke-linecap="round" stroke-linejoin="round" stroke-width="1.5"/><path d="M2.000045,21 L2.000045,20.4 C2.000045,18.1598 2.000045,17.0397 2.43602,16.18405 C2.81951,15.4314 3.431435,14.81945 4.18408,14.43595" id="路径" stroke="#212121" stroke-linecap="round" stroke-linejoin="round" stroke-width="1.5"/></g></g></g></svg>